# xmcd
#
# Track frame offsets:
#	150
#	19383
#	37081
#	51231
#	66829
#	83287
#	100314
#	115929
#	127952
#	147901
#	159552
#	175079
#	189762
#	207494
#	234883
#	253093
# Disc length: 3551 seconds
# Revision: 1
# Processed by: cddbd v1.5.1PL0 Copyright (c) Steve Scherf et al.
#
# Submitted via: libkcddb 0.10
#
DISCID=d60ddd10
DTITLE=DJ RENÉ - FORRÓ BOM DEMAIS
DYEAR=1900
DGENRE=
TTITLE0=DJ RENE7
TTITLE1=RICOCHET14
TTITLE2=SABOREAR1
TTITLE3=SABOREAR2
TTITLE4=TROPYCALIA1
TTITLE5=MULHERES PERDIDAS3
TTITLE6=MULHERES PERDIDAS5
TTITLE7=FORROZAO3
TTITLE8=FORROZAO5
TTITLE9=FORROZAO11
TTITLE10=CAPITAL DO SOL11
TTITLE11=CAPITAL DO SOL12
TTITLE12=DJ RENE3
TTITLE13=DJ RENE5
TTITLE14=SABOREAR5
TTITLE15=SABOREAR20
EXTD=
EXTT0=
EXTT1=
EXTT2=
EXTT3=
EXTT4=
EXTT5=
EXTT6=
EXTT7=
EXTT8=
EXTT9=
EXTT10=
EXTT11=
EXTT12=
EXTT13=
EXTT14=
EXTT15=
PLAYORDER=
